<svg id="Layer_1" data-name="Layer 1" xmlns="http://www.w3.org/2000/svg" viewBox="0 0 1920 1080"><defs><style>.cls-1{fill:#14213d;}.cls-2{fill:#e5e5e5;}.cls-3{fill:#fca311;}</style></defs><path class="cls-1" d="M2663.46-389.26c.75,113.08-85.66,204.62-166.53,243.21-118.11,56.37-180.89-21-286.18,37.29C2113.44-54.91,2135.83,28.45,2027,96.75c-64.9,40.75-180.73,78.79-230.3,35.89C1692.29,42.26,1830.56-451.9,2164.09-598c35.13-15.39,232.61-101.91,379.76-1.42C2553.2-593,2662.61-515.76,2663.46-389.26Z"/><path class="cls-2" d="M1536.78,1473.6c-79.43,80.5-205.26,84.13-289.73,54.23-123.38-43.66-113.08-142.75-228.73-176-106.89-30.73-150,44-275.22,15.41-74.71-17.08-183.51-72.08-188.23-137.46-10-137.77,437.25-389.43,776.41-256.91,35.73,14,236.55,92.43,269.54,267.54C1602.92,1251.54,1625.63,1383.56,1536.78,1473.6Z"/><path class="cls-3" d="M183.68-66.42c81.49,78.4,86.71,204.18,57.89,289C199.47,346.52,100.26,337.47,68.48,453.54,39.1,560.8,114.42,603,87.37,728.54c-16.13,74.91-69.75,184.4-135.07,190-137.63,11.69-394.93-432.29-266.7-773.1,13.5-35.9,89.42-237.7,264.1-272.9C-39.2-129.75,92.52-154.13,183.68-66.42Z"/></svg>