<svg id="Layer_1" data-name="Layer 1" xmlns="http://www.w3.org/2000/svg" viewBox="0 0 1920 1080"><defs><style>.cls-1{fill:none;stroke:#fca311;stroke-miterlimit:10;stroke-width:2px;}</style></defs><path class="cls-1" d="M1265,1302c68.75-68.75,121.06-16.45,189.82-85.2s16.45-121.07,85.2-189.82,121.07-16.46,189.83-85.21,16.45-121.07,85.21-189.83,121.06-16.45,189.82-85.21,16.46-121.07,85.22-189.83"/><path class="cls-1" d="M1309.57,1346.53c68.75-68.75,121.06-16.45,189.82-85.2s16.45-121.07,85.2-189.82,121.07-16.45,189.83-85.21,16.45-121.07,85.21-189.82,121.06-16.46,189.82-85.22,16.46-121.07,85.22-189.83"/><path class="cls-1" d="M1354.15,1391.11c68.75-68.75,121.06-16.45,189.82-85.2s16.45-121.07,85.21-189.82,121.06-16.45,189.82-85.21,16.45-121.07,85.21-189.82S2025.27,824.6,2094,755.84s16.46-121.07,85.22-189.83"/><path class="cls-1" d="M1398.73,1435.7c68.76-68.76,121.06-16.45,189.82-85.21s16.45-121.06,85.21-189.82,121.06-16.45,189.82-85.21,16.45-121.07,85.21-189.82,121.06-16.46,189.83-85.22,16.45-121.07,85.21-189.83"/><path class="cls-1" d="M-396,432c68.75-68.75,121.06-16.45,189.82-85.2s16.45-121.07,85.2-189.82S.08,140.47,68.84,71.72,85.29-49.35,154.05-118.11s121.06-16.45,189.82-85.21,16.46-121.07,85.22-189.83"/><path class="cls-1" d="M-351.43,476.53c68.75-68.75,121.06-16.45,189.82-85.2s16.45-121.07,85.2-189.82S44.66,185.06,113.42,116.3,129.87-4.77,198.63-73.52,319.69-90,388.45-158.74s16.46-121.07,85.22-189.83"/><path class="cls-1" d="M-306.85,521.11c68.75-68.75,121.06-16.45,189.82-85.2s16.45-121.07,85.21-189.82S89.24,229.64,158,160.88,174.45,39.81,243.21-28.94,364.27-45.4,433-114.16,449.49-235.23,518.25-304"/><path class="cls-1" d="M-262.27,565.7c68.76-68.76,121.06-16.45,189.82-85.21S-56,359.43,12.76,290.67s121.06-16.45,189.82-85.21S219,84.39,287.79,15.64,408.85-.82,477.62-69.58s16.45-121.07,85.21-189.83"/></svg>